PathFileType	4	(X/Y/Z)	./resultDataOpenSim/trcMotMarkerGrf/sub06/qtm-05-08.trc
DataRate	CameraRate	NumFrames	NumMarkers	Units	OrigDataRate	OrigDataStartFrame	OrigNumFrames
250.000000	250.000000	9	24	m	250.000000	254	507
Frame#	Time	L.Toe.Tip			R.Toe.Tip			L.Ankle.Lat			R.Ankle.Lat			L.Ankle.Med			R.Ankle.Med			L.Heel			R.Heel			L.Knee.Lat			R.Knee.Lat			L.Knee.Med			R.Knee.Med			L.Thigh.Upper			R.Thigh.Upper			L.ASIS			R.ASIS			V.Sacral			L.Acromium			R.Acromium			C7			L.Elbow			R.Elbow			L.Wrist.Lat			R.Wrist.Lat
		X1	Y1	Z1	X2	Y2	Z2	X3	Y3	Z3	X4	Y4	Z4	X5	Y5	Z5	X6	Y6	Z6	X7	Y7	Z7	X8	Y8	Z8	X9	Y9	Z9	X10	Y10	Z10	X11	Y11	Z11	X12	Y12	Z12	X13	Y13	Z13	X14	Y14	Z14	X15	Y15	Z15	X16	Y16	Z16	X17	Y17	Z17	X18	Y18	Z18	X19	Y19	Z19	X20	Y20	Z20	X21	Y21	Z21	X22	Y22	Z22	X23	Y23	Z23	X24	Y24	Z24

254	1.012	0.058732085	-0.064278358	-0.0057404787	0.6017041	0.11258803	0.16105675	-0.053115426	0.00053138953	-0.025096394	0.46811402	0.10340436	0.16547548	-0.041833297	0.018247296	0.05925306	0.49417122	0.13077395	0.080884173	-0.1256244	-0.0081147032	0.02672123	0.42836784	0.068186335	0.097066007	0.073953089	0.3521477	-0.052661122	0.48171636	0.49509038	0.19006507	0.056928852	0.35708374	0.068275095	0.46452323	0.47694595	0.069567039	0.18534193	0.71962233	-0.12882749	0.18442052	0.74990666	0.22751439	0.27113075	0.76370347	-0.090652646	0.29058257	0.79077469	0.15067439	0.096503878	0.85677864	0.042037852	0.26758059	1.256685	-0.14665004	0.24034241	1.2485407	0.21203225	0.17535869	1.2899613	0.02355082	0.30813604	0.93362033	-0.21631069	0.062578879	0.99159697	0.27237256	0.54119358	0.86529023	-0.13643417	0.10149309	0.76423936	0.33946591
255	1.016	0.058777919	-0.064292546	-0.0058043512	0.62138932	0.1138303	0.15975398	-0.052379615	0.0012137397	-0.025672283	0.48770311	0.1022306	0.16381697	-0.041200239	0.018842304	0.058768115	0.51368774	0.13037729	0.079343438	-0.12506257	-0.0067099033	0.025982044	0.4492205	0.066306739	0.09489028	0.077137572	0.35213654	-0.052691792	0.48902135	0.49411387	0.18959966	0.060539911	0.35665566	0.068205424	0.47244877	0.47578389	0.069304694	0.18979675	0.71852755	-0.12882055	0.1911563	0.74958822	0.22812506	0.27636013	0.76210193	-0.091364103	0.29774991	0.78969326	0.14993235	0.10283912	0.85575718	0.042246203	0.27392673	1.2557557	-0.14667347	0.24718314	1.2472069	0.21232279	0.1819376	1.2889743	0.023896607	0.31716343	0.93308348	-0.21634282	0.068784991	0.99084049	0.27244267	0.55087895	0.86875532	-0.1342628	0.10610118	0.76341713	0.33996
256	1.02	0.058835613	-0.064302208	-0.0058559549	0.64066811	0.11514201	0.15833874	-0.051602213	0.0018938784	-0.026169948	0.50701833	0.1011456	0.1621571	-0.04048836	0.019480475	0.058377354	0.53266488	0.13015142	0.077778316	-0.1244498	-0.0052475422	0.025340376	0.46954654	0.064707592	0.092814917	0.080491603	0.35205278	-0.052715659	0.49622006	0.49283994	0.18910791	0.064548122	0.35617635	0.067930821	0.48024815	0.47435907	0.068976379	0.19427238	0.71738515	-0.12879473	0.19798186	0.74918191	0.22870903	0.28163048	0.76052849	-0.091923102	0.30503728	0.78860044	0.14925426	0.10906863	0.85465573	0.04245756	0.28031375	1.2547505	-0.1467071	0.2540255	1.2458251	0.21260808	0.18857003	1.2879201	0.024183957	0.32657212	0.9324292	-0.215617	0.075053377	0.98998296	0.2725349	0.56047837	0.87212121	-0.13212542	0.11077265	0.76252262	0.34047427
257	1.024	0.058905254	-0.064307513	-0.0058969368	0.6595074	0.11650423	0.15679267	-0.05078485	0.0025988728	-0.026576239	0.52604516	0.10007041	0.16046131	-0.039679693	0.020177849	0.058089648	0.55103155	0.13007128	0.076218413	-0.12377167	-0.0037073032	0.024829381	0.48927464	0.06334137	0.090887265	0.084196917	0.35187773	-0.052834247	0.50334685	0.49130098	0.18858532	0.068847177	0.35565273	0.067568467	0.48792969	0.47269058	0.068560146	0.19879482	0.71620362	-0.12874276	0.20490547	0.74869	0.22926188	0.28695062	0.75899274	-0.09236603	0.31239321	0.78748405	0.14861417	0.11536516	0.85348803	0.042728264	0.2867484	1.2536785	-0.14674409	0.2608766	1.2443983	0.21288764	0.19528661	1.2868086	0.024388149	0.33621217	0.93156686	-0.21445317	0.081427327	0.98902518	0.2726607	0.56999134	0.87538253	-0.13002463	0.1155982	0.76156887	0.34101961
258	1.028	0.058982703	-0.064309989	-0.0059273293	0.67784228	0.11787591	0.15511659	-0.049929855	0.0033361487	-0.02690962	0.54472147	0.098963705	0.15870149	-0.038794881	0.020908213	0.057865484	0.56873616	0.13012154	0.07467378	-0.12303331	-0.0021040955	0.02443824	0.50833969	0.062162953	0.089133029	0.088320745	0.35161988	-0.053068541	0.510437	0.48953252	0.18803093	0.073312617	0.35509816	0.067236819	0.49550514	0.4708019	0.068039628	0.20338542	0.71500042	-0.12865666	0.21193547	0.74811471	0.22977916	0.29229635	0.75744523	-0.092784689	0.31977303	0.78632823	0.14798956	0.12179214	0.85226446	0.043071804	0.29323243	1.2525448	-0.14678241	0.26773843	1.2429275	0.21316347	0.20206536	1.2856587	0.024545942	0.34574759	0.93055033	-0.21346826	0.087924307	0.9879756	0.27282468	0.57941678	0.87853645	-0.12796266	0.12063635	0.76056657	0.34160772
259	1.032	0.059060722	-0.064312639	-0.005946488	0.69557628	0.11921525	0.1533212	-0.049054292	0.0041034975	-0.027207918	0.56290302	0.097888131	0.15690382	-0.037865658	0.021640864	0.057661172	0.58573674	0.13028938	0.073147037	-0.12224589	-0.00046406679	0.02412794	0.52667121	0.061161433	0.087512849	0.092691143	0.35131598	-0.053318548	0.51751916	0.48757084	0.18744448	0.077884874	0.35452706	0.066986345	0.50298628	0.4687247	0.067393466	0.20805769	0.71379499	-0.12852559	0.21908014	0.74745829	0.23025643	0.29765476	0.75586168	-0.093227129	0.3271119	0.7851102	0.14735075	0.12834623	0.85099212	0.04348069	0.29976575	1.2513538	-0.14682373	0.27460944	1.2414122	0.21343805	0.20883179	1.2844917	0.024749178	0.35504881	0.92945168	-0.21291144	0.094528686	0.98684357	0.27301967	0.5887575	0.88158676	-0.12593618	0.12586253	0.75951392	0.3422378
260	1.036	0.059132446	-0.06431864	-0.0059557039	0.71262256	0.12049337	0.15139901	-0.048181318	0.0049022695	-0.027506923	0.58040648	0.096976671	0.15514135	-0.036902643	0.022371307	0.057462744	0.60199743	0.1305506	0.071647691	-0.12141284	0.001198707	0.02386414	0.54419288	0.060359069	0.085940312	0.097072738	0.35098633	-0.053478874	0.5246132	0.48545158	0.1868243	0.082562905	0.35395254	0.066813816	0.51038271	0.46649837	0.066606296	0.21281782	0.71260096	-0.12833718	0.22634779	0.74672303	0.23068925	0.30304237	0.75426086	-0.093691379	0.33436662	0.78381446	0.14668071	0.13500686	0.84967669	0.043944163	0.3063503	1.2501104	-0.14686948	0.28148964	1.2398534	0.21371314	0.21553729	1.2833188	0.025056003	0.36419383	0.92825947	-0.21264384	0.1012152	0.98563513	0.27323383	0.59801874	0.88453935	-0.12394141	0.13121892	0.75840088	0.3428981
261	1.04	0.059194375	-0.064329741	-0.0059579855	0.72892975	0.12168475	0.14933366	-0.047306334	0.0057341418	-0.02781247	0.59709875	0.096305347	0.15346065	-0.035893795	0.023114511	0.057276376	0.6174886	0.13086242	0.070191835	-0.12052769	0.0028865473	0.023631697	0.56084101	0.059762682	0.084358631	0.10139507	0.35061615	-0.053543131	0.53173832	0.4832138	0.18616843	0.087364991	0.35338117	0.066705806	0.51771298	0.46416219	0.065694249	0.21766789	0.7114231	-0.12808674	0.23374671	0.7459112	0.23107316	0.30848562	0.75266895	-0.094166627	0.34156882	0.78244544	0.14599795	0.14175876	0.84832376	0.044454568	0.31298969	1.2488205	-0.14691692	0.28838564	1.2382572	0.21399081	0.22223134	1.2821294	0.02540488	0.37326348	0.92692162	-0.21250928	0.10796884	0.98435002	0.27346748	0.60720417	0.88739379	-0.12197986	0.13666669	0.75721363	0.34357469
262	1.044	0.059248024	-0.064345574	-0.0059553291	0.74446786	0.12275813	0.14712934	-0.046386255	0.0065974777	-0.028094279	0.61291408	0.095837883	0.15184649	-0.034826343	0.023881937	0.057105371	0.63218639	0.13116966	0.068794551	-0.11958258	0.0046092772	0.023423948	0.57657798	0.059333125	0.08276953	0.10574726	0.35018753	-0.053570895	0.53891923	0.48090482	0.18547547	0.092302711	0.35280233	0.066662701	0.52501404	0.46175081	0.064702999	0.22260787	0.71025796	-0.12778077	0.24128518	0.74502509	0.23140374	0.31399607	0.75110126	-0.094646363	0.34878021	0.78101302	0.14533321	0.14859455	0.84693923	0.045007154	0.31968767	1.2474901	-0.14695781	0.29530712	1.2366324	0.21427339	0.22903387	1.2808956	0.025651654	0.38229438	0.92546171	-0.21241262	0.11478847	0.98298744	0.27372794	0.61631603	0.89014072	-0.12005521	0.14221391	0.75594366	0.34426113
